<?xml version="1.0" standalone="no"?>
<!DOCTYPE svg PUBLIC "-//W3C//DTD SVG 20010904//EN"
 "http://www.w3.org/TR/2001/REC-SVG-20010904/DTD/svg10.dtd">
<svg version="1.0" xmlns="http://www.w3.org/2000/svg"
 width="576.000000pt" height="576.000000pt" viewBox="0 0 576.000000 576.000000"
 preserveAspectRatio="xMidYMid meet">
<metadata>
Created by potrace 1.14, written by Peter Selinger 2001-2017
</metadata>
<g transform="translate(0.000000,576.000000) scale(0.100000,-0.100000)"
fill="#000000" stroke="none">
<path d="M5518 5085 c-2 -2 -16 -5 -33 -8 -42 -8 -83 -21 -135 -44 -25 -11
-94 -39 -155 -62 -60 -24 -117 -46 -126 -51 -8 -4 -69 -29 -135 -55 -172 -67
-464 -184 -499 -199 -39 -17 -149 -60 -155 -62 -14 -2 -68 -26 -90 -38 -22
-13 -25 -22 -27 -83 -1 -37 -4 -76 -7 -85 -2 -10 0 -18 6 -18 5 0 7 -4 3 -10
-8 -12 -8 -417 0 -430 3 -6 2 -10 -3 -10 -5 0 -6 -19 -2 -42 3 -24 3 -57 -1
-75 -3 -17 -3 -36 1 -43 4 -6 4 -31 0 -55 -4 -25 -4 -45 -1 -45 7 0 4 -217 -3
-236 -3 -8 -2 -14 2 -14 4 0 5 -30 2 -67 -3 -38 -3 -88 0 -113 3 -25 2 -66 -1
-92 -3 -27 -1 -48 3 -48 5 0 7 -4 3 -10 -8 -12 -8 -417 0 -430 3 -6 2 -10 -3
-10 -5 0 -6 -19 -2 -42 3 -24 3 -57 -1 -75 -3 -17 -3 -36 1 -43 4 -6 4 -31 0
-55 -4 -25 -4 -45 -1 -45 7 0 4 -217 -3 -236 -3 -8 -2 -14 2 -14 4 0 5 -30 2
-67 -3 -38 -3 -88 0 -113 3 -25 2 -66 -1 -92 -3 -27 -1 -48 3 -48 5 0 7 -4 3
-10 -8 -12 -8 -417 0 -430 3 -6 2 -10 -3 -10 -5 0 -6 -19 -2 -43 3 -23 3 -56
-1 -74 -3 -17 -3 -36 1 -43 4 -6 4 -31 0 -55 -4 -25 -4 -45 -1 -45 3 0 6 -54
6 -120 0 -66 -2 -120 -5 -120 -4 0 -4 -77 0 -166 0 -7 35 3 83 22 45 18 89 34
97 36 8 2 17 5 20 8 3 3 61 28 130 54 69 27 143 57 165 66 22 10 87 36 145 58
58 22 119 48 135 56 17 9 36 16 43 16 7 0 38 11 68 25 30 14 57 25 60 25 3 0
20 6 37 14 18 8 137 56 266 108 255 102 293 126 330 208 20 45 21 58 21 1767
0 1691 -1 1723 -20 1768 -20 47 -65 96 -111 120 -27 14 -105 35 -111 30z"/>
<path d="M1919 5031 c-2 -28 0 -51 4 -51 5 0 5 -4 2 -10 -3 -5 -6 -45 -5 -87
1 -43 1 -89 0 -103 -1 -14 -1 -32 -1 -40 1 -8 1 -33 0 -55 0 -22 -1 -47 0 -55
3 -110 1 -232 -4 -240 -3 -5 -2 -10 2 -10 5 0 6 -30 3 -67 -3 -38 -3 -88 0
-113 3 -25 2 -66 -1 -92 -3 -27 -1 -48 3 -48 5 0 7 -4 4 -9 -7 -10 -10 -300
-4 -306 2 -2 1 -31 -2 -65 -3 -33 -3 -65 1 -71 3 -6 3 -28 -1 -50 -4 -22 -4
-41 -1 -43 4 -3 4 -33 1 -68 -3 -35 -3 -84 0 -110 3 -27 3 -48 0 -48 -4 0 -4
-19 0 -42 3 -24 3 -57 -1 -75 -3 -17 -3 -36 1 -43 4 -6 4 -31 0 -55 -4 -25 -4
-45 -1 -45 3 0 6 -29 6 -65 0 -36 -3 -65 -6 -65 -3 0 -3 -20 1 -45 4 -25 3
-48 -2 -51 -4 -3 -6 -9 -3 -14 3 -5 5 -29 5 -52 0 -24 0 -52 0 -63 0 -11 0
-60 0 -108 0 -48 -2 -92 -5 -98 -4 -5 -2 -9 2 -9 5 0 6 -30 3 -67 -3 -38 -3
-88 0 -113 3 -25 2 -66 -1 -92 -3 -27 -1 -48 3 -48 5 0 6 -4 3 -10 -3 -5 -5
-76 -5 -157 1 -82 1 -152 1 -158 0 -5 -2 -38 -3 -73 -2 -34 -1 -62 2 -62 3 0
4 -26 2 -57 -4 -82 -3 -144 3 -153 3 -5 1 -11 -5 -15 -6 -4 -8 -11 -5 -16 4
-5 6 -30 5 -56 0 -27 -1 -57 0 -68 0 -11 0 -34 0 -52 -1 -31 13 -41 85 -60 12
-3 130 -36 205 -58 30 -9 62 -18 70 -20 8 -2 71 -20 140 -40 69 -20 132 -38
140 -40 8 -2 15 -4 15 -5 0 -1 8 -3 18 -5 10 -2 51 -13 90 -25 40 -12 83 -24
96 -27 13 -2 32 -8 43 -14 10 -5 18 -7 18 -3 0 3 7 1 15 -6 8 -7 15 -10 15 -7
0 3 28 -4 63 -14 34 -11 69 -22 77 -23 8 -2 56 -16 105 -31 50 -14 97 -28 105
-30 8 -2 49 -13 90 -25 41 -12 80 -23 85 -24 6 -1 30 -8 55 -15 25 -7 52 -15
60 -17 8 -2 85 -24 170 -48 85 -25 156 -43 158 -42 2 2 3 12 3 22 -2 97 0 137
5 145 3 5 1 9 -4 9 -4 0 -6 21 -3 48 3 26 4 67 1 92 -3 25 -3 56 1 70 3 14 3
34 -1 45 -4 11 -4 33 0 50 3 16 3 44 0 60 -3 17 -3 49 1 72 3 24 3 43 0 43 -3
0 -6 23 -6 50 0 28 3 50 6 50 3 0 3 19 -1 42 -3 24 -3 57 1 75 3 17 3 37 -1
43 -4 6 -4 28 0 48 3 20 3 48 0 62 -4 14 -3 39 1 56 3 18 3 37 -1 43 -4 7 -4
32 0 56 4 25 4 45 0 45 -3 0 -4 21 -1 48 4 26 4 68 1 94 -3 26 -3 54 0 64 4 9
3 37 0 61 -4 24 -4 46 0 48 4 3 4 22 1 42 -4 21 -4 55 0 76 3 21 3 40 -1 42
-4 2 -4 25 0 50 4 25 4 45 1 45 -3 0 -5 26 -3 57 1 32 2 78 1 103 0 25 0 51 0
58 2 19 2 43 1 100 0 29 2 57 5 62 3 6 2 10 -3 10 -4 0 -6 21 -3 48 4 26 4 68
1 94 -3 26 -3 54 0 63 3 10 4 36 0 59 -3 22 -3 66 0 97 3 31 3 67 0 80 -3 13
-3 43 0 67 4 23 4 42 0 42 -3 0 -4 21 -1 48 3 26 4 67 1 92 -3 25 -3 56 1 70
3 14 3 34 -1 45 -4 11 -4 33 0 50 3 16 3 44 0 60 -3 17 -3 49 1 73 3 23 3 42
0 42 -3 0 -6 23 -6 50 0 28 4 50 8 50 5 0 5 4 2 10 -3 5 -5 33 -5 62 1 54 1
78 -1 101 -1 18 0 107 2 142 0 17 1 37 0 45 -1 8 -1 29 0 45 1 32 1 39 -3 94
-3 35 -2 34 -78 56 -8 2 -46 13 -85 24 -38 11 -133 38 -210 61 -77 22 -147 42
-156 44 -9 3 -47 13 -85 25 -38 11 -94 27 -124 35 -55 14 -333 94 -480 137
-19 6 -42 11 -50 12 -8 2 -19 5 -25 8 -9 5 -46 17 -80 24 -5 2 -30 9 -55 16
-25 7 -47 13 -50 14 -14 3 -131 37 -170 50 -25 8 -61 17 -79 20 -19 3 -41 9
-50 14 -9 4 -37 13 -62 19 -26 7 -53 14 -62 18 -12 4 -16 -5 -18 -45z"/>
<path d="M1530 5042 c-19 -9 -91 -39 -160 -65 -69 -27 -132 -52 -141 -57 -8
-4 -69 -29 -135 -55 -219 -86 -469 -186 -501 -201 -17 -8 -33 -14 -36 -14 -2
0 -22 -8 -43 -17 -22 -9 -41 -17 -44 -18 -9 -3 -44 -17 -65 -25 -11 -5 -80
-32 -153 -62 -151 -60 -195 -91 -228 -162 l-24 -51 0 -1725 1 -1725 24 -49
c44 -91 131 -143 232 -138 27 2 175 54 258 92 11 5 135 54 275 110 140 55 275
109 300 119 25 11 81 34 125 51 44 17 89 35 100 40 11 5 79 32 152 61 l132 53
0 95 c1 53 2 124 3 159 2 34 1 62 -2 62 -3 0 -4 28 -2 62 1 35 3 68 3 73 0 6
0 28 0 50 -1 22 -1 49 -1 60 1 11 1 67 0 124 0 58 2 106 4 108 2 2 1 16 -3 31
-4 15 -4 41 -1 58 4 18 4 37 0 43 -4 7 -4 32 0 56 4 25 3 45 -2 45 -5 0 -6 4
-3 10 3 5 6 45 5 87 -1 43 -1 87 0 98 1 11 1 27 1 35 -3 123 -1 181 4 190 3 5
1 10 -5 10 -6 0 -9 4 -5 10 8 12 8 417 0 430 -3 6 -2 10 3 10 5 0 6 19 2 43
-3 23 -3 56 1 74 3 17 3 36 -1 43 -4 6 -4 31 0 55 4 25 4 45 1 45 -7 0 -4 217
3 236 3 8 1 14 -5 14 -6 0 -8 4 -4 9 7 12 9 331 2 337 -3 3 -1 20 3 38 4 19 4
39 0 45 -4 7 -4 32 0 56 4 25 3 45 -2 45 -5 0 -6 4 -3 10 3 5 6 45 5 87 -1 43
-1 87 0 98 2 25 2 18 1 145 -1 58 0 133 1 168 2 34 1 62 -2 62 -3 0 -4 28 -2
62 2 35 2 79 1 98 0 19 -1 41 0 48 1 6 1 20 1 30 0 9 0 36 0 60 1 48 -11 53
-70 24z"/>
</g>
</svg>
